HIERARCHY
ROOT Hips
{
	OFFSET 0.000000 0.000000 0.000000 
	CHANNELS 6 Xposition Yposition Zposition Zrotation Yrotation Xrotation
	JOINT LeftUpLeg
	{
		OFFSET 1.363060 -1.794630 0.839290 
		CHANNELS 3 Zrotation Yrotation Xrotation
		JOINT LeftLeg
		{
			OFFSET 2.448110 -6.726130 0.000000 
			CHANNELS 3 Zrotation Yrotation Xrotation
			JOINT LeftFoot
			{
				OFFSET 2.562200 -7.039590 0.000000 
				CHANNELS 3 Zrotation Yrotation Xrotation
				JOINT LeftToeBase
				{
					OFFSET 0.157640 -0.433110 2.322550 
					CHANNELS 3 Zrotation Yrotation Xrotation
					End Site
					{
						OFFSET 0.000000 0.000000 0.000000 
					}
				}
			}
		}
	}
	JOINT RightUpLeg
	{
		OFFSET -1.305520 -1.794630 0.839290 
		CHANNELS 3 Zrotation Yrotation Xrotation
		JOINT RightLeg
		{
			OFFSET -2.542530 -6.985550 0.000000 
			CHANNELS 3 Zrotation Yrotation Xrotation
			JOINT RightFoot
			{
				OFFSET -2.568260 -7.056230 0.000000 
				CHANNELS 3 Zrotation Yrotation Xrotation
				JOINT RightToeBase
				{
					OFFSET -0.164730 -0.452590 2.363150 
					CHANNELS 3 Zrotation Yrotation Xrotation
					End Site
					{
						OFFSET 0.000000 0.000000 0.000000 
					}
				}
			}
		}
	}
	JOINT Spine
	{
		OFFSET 0.028270 2.035590 -0.193380 
		CHANNELS 3 Zrotation Yrotation Xrotation
		JOINT Spine1
		{
			OFFSET 0.056720 2.048850 -0.042750 
			CHANNELS 3 Zrotation Yrotation Xrotation
			JOINT Neck1
			{
				OFFSET -0.054170 1.746240 0.172020 
				CHANNELS 3 Zrotation Yrotation Xrotation
				JOINT Head
				{
					OFFSET 0.104070 1.761360 -0.123970 
					CHANNELS 3 Zrotation Yrotation Xrotation
					End Site
					{
						OFFSET 0.000000 0.000000 0.000000 
					}
				}
			}
			JOINT LeftArm
			{
				OFFSET 3.362410 1.200890 -0.311210 
				CHANNELS 3 Zrotation Yrotation Xrotation
				JOINT LeftForeArm
				{
					OFFSET 4.983000 -0.000000 -0.000000 
					CHANNELS 3 Zrotation Yrotation Xrotation
					JOINT LeftHand
					{
						OFFSET 3.483560 -0.000000 -0.000000 
						CHANNELS 3 Zrotation Yrotation Xrotation
						JOINT LeftHandIndex1
						{
							OFFSET 0.715260 -0.000000 -0.000000 
							CHANNELS 3 Zrotation Yrotation Xrotation
							End Site
							{
								OFFSET 0.000000 0.000000 0.000000 
							}
						}
					}
				}
			}
			JOINT RightArm
			{
				OFFSET -3.136600 1.374050 -0.404650 
				CHANNELS 3 Zrotation Yrotation Xrotation
				JOINT RightForeArm
				{
					OFFSET -5.241900 -0.000000 -0.000000 
					CHANNELS 3 Zrotation Yrotation Xrotation
					JOINT RightHand
					{
						OFFSET -3.444170 -0.000000 -0.000000 
						CHANNELS 3 Zrotation Yrotation Xrotation
						JOINT RightHandIndex1
						{
							OFFSET -0.622530 -0.000000 -0.000000 
							CHANNELS 3 Zrotation Yrotation Xrotation
							End Site
							{
								OFFSET 0.000000 0.000000 0.000000 
							}
						}
					}
				}
			}
		}
	}
}
MOTION
Frames: 10
Frame Time: 0.041667
11.717602 18.027609 -44.734208 -1.371200 6.487533 1.535101 -16.669304 -20.326390 -10.076054 -1.351661 10.016474 28.060033 2.295046 -2.002438 2.622705 1.551300 -7.861300 -22.293700 25.419953 14.800024 -1.839561 1.632886 -8.939613 28.256482 5.181634 -20.228844 -20.418975 -0.048900 -1.426700 3.923600 5.268618 1.047741 4.466430 -1.309616 0.622734 -8.155723 22.234971 -18.824407 32.196928 5.977100 -6.175100 13.700700 -86.342982 7.345423 23.936929 22.173653 -21.811346 -5.432959 2.168973 0.211787 17.402115 -7.125000 0.000000 0.000000 85.290486 -6.641815 33.947682 -18.509664 21.129280 -4.922065 1.545364 0.334023 18.484949 7.125000 0.000000 0.000000 
11.717009 18.028796 -44.726258 -1.289531 6.719302 1.605391 -16.732523 -20.462611 -10.034387 -1.362483 10.002624 28.012190 2.373765 -2.213680 2.666539 1.412500 -7.516900 -21.256100 25.357417 14.691801 -1.859141 1.643251 -8.926689 28.219136 5.263023 -20.460367 -20.500378 -0.021100 -0.937100 2.575700 4.880877 1.193418 4.034728 -1.487162 0.673183 -8.429385 22.144125 -18.979324 32.331926 5.902200 -6.223600 13.770300 -86.237361 7.913777 24.119783 22.192017 -21.826927 -5.437455 2.160069 0.209715 17.342926 -7.125000 0.000000 0.000000 85.715737 -6.739366 34.287053 -18.285551 20.860638 -4.838790 1.549110 0.356693 18.169607 7.125000 0.000000 0.000000 
11.731602 18.023575 -44.695055 -1.257520 6.514447 1.440368 -16.911180 -20.608436 -9.660107 -1.359752 10.004857 28.040919 2.228122 -1.839388 2.342046 1.448000 -7.606700 -21.525800 25.331937 14.630033 -1.570702 1.643516 -8.886290 28.173201 5.268196 -20.443161 -20.424912 -0.006500 -0.520200 1.429500 4.345681 1.551108 3.987091 -1.871195 0.811856 -8.391857 22.073827 -19.187362 32.436161 5.814200 -6.279000 13.863600 -86.023418 8.480980 24.526105 22.265522 -21.910832 -5.475428 2.150721 0.218218 17.032772 -7.125000 0.000000 0.000000 86.154220 -6.819860 34.722662 -17.919450 20.391600 -4.685443 1.566785 0.320378 18.567654 7.125000 0.000000 0.000000 
11.728992 18.019067 -44.701343 -1.268458 6.955524 1.316402 -16.953525 -20.814699 -9.546125 -1.344794 10.006444 28.081363 2.318794 -2.099560 2.429329 1.483500 -7.695300 -21.792400 25.348166 14.351165 -1.521823 1.662029 -8.846406 28.096113 5.278068 -20.514446 -20.566487 -0.008300 -0.588500 1.617200 4.685392 1.559966 4.456690 -1.610712 0.853467 -8.025435 22.001129 -19.120164 32.090244 5.776900 -6.284700 13.756000 -86.377494 8.268353 24.696062 22.243947 -21.855393 -5.462150 2.123607 0.282012 16.853620 -7.125000 0.000000 0.000000 85.762186 -6.504658 35.539919 -18.021830 20.543712 -4.766112 1.561730 0.389847 17.197296 7.125000 0.000000 0.000000 
11.720568 18.012779 -44.693275 -1.286227 7.445317 1.133521 -16.994745 -21.010549 -9.323999 -1.317552 10.025870 28.174953 2.420012 -2.379860 2.454068 1.503100 -7.743700 -21.938200 25.532328 14.162258 -1.207001 1.693682 -8.784234 27.998947 5.282143 -20.680942 -20.963269 -0.016700 -0.833600 2.291200 4.575552 1.469895 4.236480 -1.655450 0.804877 -8.304444 22.088994 -19.009646 32.060128 5.842100 -6.246500 13.719900 -86.463538 8.818102 24.832442 22.257159 -21.867342 -5.465342 2.139992 0.215425 16.770300 -7.125000 0.000000 0.000000 85.919310 -6.790256 36.304259 -18.116641 20.677221 -4.813959 1.549389 0.431526 16.515865 7.125000 0.000000 0.000000 
11.732433 18.010643 -44.672038 -1.427485 7.252829 0.965277 -16.969094 -21.059485 -9.113814 -1.294121 10.048226 28.270519 2.312986 -2.093524 2.279384 1.522400 -7.791000 -22.081100 25.670771 14.114950 -0.961375 1.707124 -8.733734 27.896110 5.273908 -20.612056 -20.801460 -0.020200 -0.918300 2.524200 4.674775 1.638809 4.541049 -1.749629 0.884597 -7.992841 22.195741 -18.881550 31.804917 5.908800 -6.215400 13.631700 -86.716785 8.986483 24.729654 22.250943 -21.848992 -5.461581 2.140327 0.216753 16.978189 -7.125000 0.000000 0.000000 85.807796 -6.790906 37.200225 -18.201053 20.773656 -4.844849 1.547246 0.437433 16.150880 7.125000 0.000000 0.000000 
11.725195 18.012423 -44.676546 -1.563441 7.658307 0.946192 -16.780135 -21.089874 -9.206216 -1.278354 10.055869 28.298613 2.484425 -2.517842 2.422276 1.532900 -7.816500 -22.158200 25.882214 13.979350 -0.938143 1.730408 -8.702275 27.804378 5.315046 -20.748586 -20.835968 -0.043800 -1.351400 3.716300 4.719975 1.572715 4.603867 -1.753921 0.853618 -7.927243 22.187013 -18.847550 31.650000 5.889000 -6.205900 13.594900 -86.840016 9.105036 24.544291 22.174911 -21.766945 -5.439539 2.154389 0.235387 17.302451 -7.125000 0.000000 0.000000 85.784725 -6.851548 38.135871 -18.329512 20.924356 -4.888324 1.544439 0.430867 15.937643 7.125000 0.000000 0.000000 
11.718551 18.014321 -44.675478 -1.542333 7.976551 1.008099 -16.755263 -21.101730 -9.313243 -1.269770 10.067376 28.318526 2.601707 -2.813667 2.427893 1.612700 -8.007900 -22.738200 25.893826 13.863576 -0.981655 1.745125 -8.679178 27.729907 5.396237 -20.942413 -20.794763 -0.066200 -1.659600 4.565900 4.640346 1.602430 4.638492 -1.722015 0.875651 -7.816661 22.215922 -18.903675 31.484911 5.871500 -6.232500 13.575200 -86.880930 9.260661 24.713963 22.125140 -21.709999 -5.432092 2.169224 0.242809 17.344635 -7.125000 0.000000 0.000000 85.827655 -6.911920 38.768804 -18.403150 21.014473 -4.920640 1.541921 0.435228 15.813631 7.125000 0.000000 0.000000 
11.712500 18.013847 -44.672156 -1.467525 8.187490 0.967147 -16.824537 -21.072092 -9.295158 -1.262331 10.074802 28.347900 2.678091 -3.025342 2.464452 1.709900 -8.233800 -23.426500 25.855482 13.647019 -0.963691 1.745136 -8.658558 27.689566 5.499749 -21.166848 -20.683249 -0.064800 -1.642300 4.518000 4.419744 1.707578 4.720217 -1.755025 0.932538 -7.741845 22.385470 -18.962770 31.222362 5.911100 -6.264400 13.500500 -86.814558 9.484069 25.188452 22.089269 -21.668884 -5.433844 2.179394 0.255552 17.223371 -7.125000 0.000000 0.000000 85.985686 -6.856325 39.369109 -18.464683 21.094472 -4.936038 1.530524 0.472870 15.095289 7.125000 0.000000 0.000000 
11.713094 18.013491 -44.665512 -1.523313 8.284294 0.908458 -16.798797 -21.134950 -9.213090 -1.258438 10.076384 28.357891 2.695811 -3.065631 2.457424 1.742500 -8.307700 -23.652600 25.929629 13.485806 -0.932282 1.739292 -8.651303 27.676010 5.541535 -21.222249 -20.504477 -0.068700 -1.691400 4.653400 4.129731 1.863021 4.462293 -1.977630 0.985824 -7.943278 22.442422 -18.978425 31.115607 5.908400 -6.272300 13.423800 -86.739976 9.998822 25.501411 21.997888 -21.569484 -5.407889 2.195375 0.253878 17.360969 -7.125000 0.000000 0.000000 86.287552 -7.143555 39.963879 -18.483348 21.114600 -4.929481 1.524290 0.482958 14.696066 7.125000 0.000000 0.000000 
